<svg xmlns="http://www.w3.org/2000/svg" width="48" height="48" viewBox="0 0 48 48" fill="none">
  <ellipse cx="24" cy="42" rx="14" ry="3" fill="#2e7d32" opacity="0.25"/>
  <path d="M19 24h10l1.2 13.5a3 3 0 0 1-3 3.3h-6.4a3 3 0 0 1-3-3.3L19 24Z" fill="#fdfaf3"/>
  <path d="M4 22C4 12.6 12.95 5 24 5s20 7.6 20 17c0 2.2-2.1 3-4.6 2.2-2.4-.8-3.7-2.7-6-2.7-2.6 0-3.4 2.6-6.4 2.6-2.7 0-3.4-2.3-6-2.3s-3.4 2.3-6.1 2.3c-2.9 0-3.6-2.6-6.2-2.6-2.3 0-3.7 1.9-6 2.7C6.1 25 4 24.2 4 22Z" fill="#ef4b3a"/>
  <circle cx="15.5" cy="15" r="2.6" fill="#fdfaf3"/>
  <circle cx="26" cy="11.5" r="2.1" fill="#fdfaf3"/>
  <circle cx="34.5" cy="16.5" r="2.3" fill="#fdfaf3"/>
  <circle cx="21" cy="19.5" r="1.6" fill="#fdfaf3"/>
</svg>
